<?xml version="1.0" encoding="utf-8"?>
<!-- Generator: Adobe Illustrator 26.1.0, SVG Export Plug-In . SVG Version: 6.00 Build 0)  -->
<svg version="1.1" id="Calque_1" xmlns="http://www.w3.org/2000/svg" xmlns:xlink="http://www.w3.org/1999/xlink" x="0px" y="0px"
	 viewBox="0 0 595.3 841.9" style="enable-background:new 0 0 595.3 841.9;" xml:space="preserve">
<style type="text/css">
	.st0{fill:#F0931E;}
	.st1{fill:#AA81AA;}
	.st2{fill:#9A6755;}
	.st3{fill:#76B82A;}
	.st4{fill:#0059A3;}
</style>
<g>
	<g>
		<g>
			<path class="st0" d="M412,229.4c-8.6,57-38.3,84.4-38.3,84.4c-3.1-2-18-13.9-38-18.8C352.5,240.5,405.4,230.6,412,229.4z"/>
			<path class="st1" d="M205.3,311.1c7.6-6.3,47.6-31.8,119.3-13.5c-1.5,3.2-8.8,18.5-7.2,49.6C250.1,357.9,210.6,318.1,205.3,311.1
				z"/>
			<path class="st2" d="M325.4,351c0,0-2.9-29.4,7.3-49.5c8.3,2.3,24.7,8.6,38,18.8C356.9,339.1,325.4,351,325.4,351z"/>
		</g>
		<path class="st3" d="M373,329.7c-4,4.5-20.8,20.2-37.7,25.7c0,0.2,17,70.1,75.3,91C412.2,444.2,433.8,375.3,373,329.7z"/>
	</g>
	<g>
		<g>
			<path class="st4" d="M144.5,471.4c0-0.4-0.3-1.3-1.1-1.3c-0.9,0-1.1,1-1.1,1.8c0,3.9,0,7.6,0,11.6c0,0.9,0.2,1.8,1.1,1.8
				c0.9,0,1.1-0.7,1.1-1.2c0-0.4,0-0.9,0-1.6c0-0.4,0.3-0.4,1.6-0.4c1.3,0,1.5,0,1.5,0.6c0,0.5,0,1.2,0,1.6c0,2.6-1.4,4.3-4.2,4.3
				c-2.7,0-4.3-2-4.3-4.3c0-4.6,0-8.3,0-12.9c0-2.4,1.6-4.4,4.3-4.4c2.8,0,4.2,2.1,4.2,4.4c0,0.4,0,1.3,0,1.7c0,0.3-0.2,0.4-1.6,0.4
				c-1,0-1.5,0.1-1.5-0.3C144.5,472.5,144.5,471.7,144.5,471.4z"/>
			<path class="st4" d="M153.2,488.5c-2.5,0-4.3-1.7-4.3-4.4c0-3.6,0-2.4,0-6c0-2.7,1.9-4.4,4.3-4.4c2.6,0,4.4,1.7,4.4,4.4
				c0,3.5,0,2.4,0,6C157.6,487,155.8,488.5,153.2,488.5z M154.4,478.9c0-1-0.2-2-1.2-2c-1,0-1.2,1.1-1.2,2c0,1.5,0,2.5,0,4.3
				c0,1.2,0.2,2.1,1.2,2.1c1,0,1.2-0.9,1.2-2.1C154.4,481.4,154.4,480.6,154.4,478.9z"/>
			<path class="st4" d="M166.5,488.5c-1.4,0-1.7,0-1.7-0.2c0-2.8,0-5.8,0-9.4c0-0.9-0.1-1.9-0.9-1.9c-1,0-1.4,0.8-1.4,1.9
				c0,3.4,0,6.7,0,9.4c0,0.3-0.1,0.3-1.7,0.3c-1.3,0-1.5,0-1.5-0.3c0-6.1,0-9.1,0-14.2c0-0.3,0.2-0.2,1.3-0.2c1.4,0,1.6-0.1,1.6,0.5
				c0,0.8,0,1,0.2,0.7c0.4-0.6,1.5-1.2,2.1-1.2c2,0,3.5,1.2,3.5,4.5c0,2.8,0,6.7,0,10C168,488.5,167.7,488.5,166.5,488.5z"/>
			<path class="st4" d="M169.5,476.9c-0.3,0-0.4,0-0.4-1.3c0-1.3,0-1.6,0.3-1.6c0.5,0,0.8,0,0.9-0.3c0-0.3,0-0.6,0-1.7
				c0-1.8,0.4-3,1.6-4c0.6-0.5,1.8-1.1,3.3-1.1c0.3,0,0.2,0.3,0.2,1.6c0,1.4-0.1,1.6-0.3,1.6c-0.5,0-1.1,0.3-1.4,0.7
				c-0.2,0.4-0.3,1.1-0.3,1.8c0,0.3,0,0.8,0.1,1.1c0.1,0.3,0.8,0.3,1.6,0.3c0.3,0,0.4,0.2,0.4,1.6c0,1.5-0.1,1.3-0.4,1.3
				c-1.6,0-1.7,0-1.7,0.5c0,3.1,0,7,0,10.5c0,0.6-0.1,0.6-1.5,0.6c-1.4,0-1.6,0-1.6-0.5c0-3.5,0-7.5,0-10.5
				C170.4,476.9,170.3,476.9,169.5,476.9z"/>
			<path class="st4" d="M179.7,483.9c0,0.9,0.4,1.3,1.2,1.3c0.9,0,1.2-0.6,1.2-1.4c0-0.2,0.3-0.2,1.5-0.2c1.3,0,1.6,0,1.6,0.4
				c0,3-1.8,4.4-4.3,4.4c-2.5,0-4.3-1.7-4.3-4.4c0-3.6,0-2.4,0-6c0-2.7,1.9-4.4,4.3-4.4c2.5,0,4.3,1.7,4.3,4.4c0,1.4,0,2.3,0,3.2
				c0,0.3,0,0.5-0.6,0.5c-1.6,0-3.2,0-4.5,0c-0.2,0-0.4,0.1-0.4,0.5C179.7,482.8,179.7,483.3,179.7,483.9z M182.2,467.9
				c0.6-0.3,0.9-0.3,1,0c0.1,0.3,0.4,1,0.5,1.2c0.3,0.4-0.2,0.8-0.4,0.9c-1.5,0.7-2.1,0.9-4,1.9c-0.5,0.2-0.7,0.1-0.7-0.2
				c-0.1-0.3-0.3-1-0.5-1.3c-0.1-0.3,0.3-0.7,1-1C180.2,468.9,181.3,468.4,182.2,467.9z M179.7,478.2c0,0.3,0,0.5,0,0.8
				c0,0.2,0.1,0.5,1.1,0.5c1.1,0,1.2-0.2,1.2-0.4c0-0.3,0-0.4,0-0.8c0-0.7-0.3-1.4-1.2-1.4C180,476.9,179.7,477.6,179.7,478.2z"/>
			<path class="st4" d="M194,466.9c1.1,0,1.5,0,1.5,0.2c0,7.8,0,14.9,0,21.1c0,0.3-0.4,0.2-1.4,0.2c-1.2,0-1.6,0.2-1.6-0.4
				c0-0.4,0-0.7-0.2-0.5c-0.2,0.2-1,0.9-1.8,0.9c-2.2,0-3.7-1.4-3.7-4.4c0-2.2,0-3.9,0-6c0-3,1.7-4.4,3.7-4.4c0.4,0,1.2,0.3,1.6,0.7
				c0.2,0.2,0.3,0.1,0.3-0.4c0-2.2,0-4.2,0-6.8C192.4,466.9,193,466.9,194,466.9z M192.3,478.9c0-1-0.2-2-1.2-2c-1,0-1.2,1.1-1.2,2
				c0,1.5,0,2.7,0,4.3c0,1.2,0.2,2.1,1.2,2.1c1,0,1.2-0.9,1.2-2.1C192.3,481.5,192.3,480.6,192.3,478.9z"/>
			<path class="st4" d="M200.2,483.9c0,0.9,0.4,1.3,1.2,1.3c0.9,0,1.2-0.6,1.2-1.4c0-0.2,0.3-0.2,1.5-0.2c1.3,0,1.6,0,1.6,0.4
				c0,3-1.8,4.4-4.3,4.4c-2.5,0-4.3-1.7-4.3-4.4c0-3.6,0-2.4,0-6c0-2.7,1.9-4.4,4.3-4.4c2.5,0,4.3,1.7,4.3,4.4c0,1.4,0,2.3,0,3.2
				c0,0.3,0,0.5-0.6,0.5c-1.6,0-3.2,0-4.5,0c-0.2,0-0.4,0.1-0.4,0.5C200.2,482.8,200.2,483.3,200.2,483.9z M202.7,467.9
				c0.6-0.3,0.9-0.3,1,0c0.2,0.3,0.4,1,0.5,1.2c0.3,0.4-0.2,0.8-0.4,0.9c-1.5,0.7-2.1,0.9-4,1.9c-0.5,0.2-0.7,0.1-0.7-0.2
				c-0.1-0.3-0.3-1-0.5-1.3c-0.2-0.3,0.3-0.7,1-1C200.7,468.9,201.8,468.4,202.7,467.9z M200.2,478.2c0,0.3,0,0.5,0,0.8
				c0,0.2,0.1,0.5,1.1,0.5c1.1,0,1.2-0.2,1.2-0.4c0-0.3,0-0.4,0-0.8c0-0.7-0.3-1.4-1.2-1.4C200.5,476.9,200.2,477.6,200.2,478.2z"/>
			<path class="st4" d="M210.6,479c0,3.3,0,5.7,0,9.1c0,0.3-0.2,0.3-1.7,0.3c-1.3,0-1.5,0-1.5-0.3c0-6.1,0-9.1,0-14.2
				c0-0.3,0.3-0.2,1.3-0.2c1.3,0,1.6-0.1,1.6,0.4c0,0.4,0,0.6,0.1,0.6c0.1-0.1,0.7-1.1,2.3-1.1c0.4,0,0.5-0.1,0.5,1.2
				c0,1.3,0,1.7-0.1,1.8c-0.2,0.2-0.6,0.2-0.8,0.2C211.3,476.9,210.6,477.8,210.6,479z"/>
			<path class="st4" d="M221.6,488.5c-1.4,0-1.6,0-1.6-0.5c0-0.4,0.1-0.7-0.2-0.6c-0.2,0.3-0.7,1-1.7,1c-2.2,0-3.8-1.4-3.8-4.4
				c0-2.2,0-3.8,0-6c0-3.3,2-4.4,3.8-4.4c0.6,0,1.3,0.4,1.7,0.9c0.2,0.3,0.2,0.1,0.2-0.5c0-0.4,0.3-0.4,1.6-0.4c1.1,0,1.4,0,1.4,0.3
				c0,3.8,0,8.1,0,14.2C223,488.5,222.7,488.5,221.6,488.5z M218.6,476.9c-1,0-1.2,1.1-1.2,2c0,1.5,0,2.5,0,4.3
				c0,1.2,0.2,2.1,1.2,2.1c1,0,1.2-0.9,1.2-2.1c0-1.4,0-2.6,0-4.3C219.8,477.9,219.6,476.9,218.6,476.9z"/>
			<path class="st4" d="M227,471.3c1.4,0,1.6,0,1.6,0.5c0,1.9,0,0.2,0,1.6c0,0.5,0.1,0.6,1.4,0.6c0.3,0,0.4,0.2,0.4,1.4
				c0,1.1,0,1.3-0.4,1.3c-0.4,0-1.3,0-1.4,0.2c-0.1,0.1-0.1,0.4-0.1,0.6c0,2.4,0,4.4,0,6.2c0,1.5,0.7,1.8,1.6,1.8
				c0.2,0,0.3,0.2,0.3,1.6c0,1.3,0,1.5-0.3,1.5c-3.7,0-4.9-1.7-4.9-4.4c0-2.3,0-5.4,0-7c0-0.3-0.4-0.4-0.9-0.4
				c-0.3,0-0.4-0.1-0.4-1.2c0-1.3,0.1-1.4,0.4-1.4c0.8,0,0.9-0.1,0.9-0.6c0-1.4,0,0.3,0-1.7C225.4,471.3,225.6,471.3,227,471.3z"/>
			<path class="st4" d="M235.4,469.5c0.1,1.1,0.2,1.9-1.7,2.1c-1.1,0.2-1.9-1.1-1.8-2.2c0.1-1,0.4-1.9,1.8-1.8
				C234.7,467.6,235.4,468.5,235.4,469.5z M233.7,488.5c-1.5,0-1.5,0-1.5-0.5c0-4.3,0-9.4,0-13.8c0-0.5,0.1-0.5,1.5-0.5
				c1.6,0,1.7,0,1.7,0.6c0,3.6,0,8.9,0,13.7C235.3,488.5,235.3,488.5,233.7,488.5z"/>
			<path class="st4" d="M241.5,488.5c-2.5,0-4.3-1.7-4.3-4.4c0-3.6,0-2.4,0-6c0-2.7,1.9-4.4,4.3-4.4c2.6,0,4.4,1.7,4.4,4.4
				c0,3.5,0,2.4,0,6C245.8,487,244.1,488.5,241.5,488.5z M242.7,478.9c0-1-0.2-2-1.2-2c-1,0-1.2,1.1-1.2,2c0,1.5,0,2.5,0,4.3
				c0,1.2,0.2,2.1,1.2,2.1c1,0,1.2-0.9,1.2-2.1C242.7,481.4,242.7,480.6,242.7,478.9z"/>
			<path class="st4" d="M254.7,488.5c-1.4,0-1.7,0-1.7-0.2c0-2.8,0-5.8,0-9.4c0-0.9-0.1-1.9-0.9-1.9c-1,0-1.4,0.8-1.4,1.9
				c0,3.4,0,6.7,0,9.4c0,0.3-0.1,0.3-1.7,0.3c-1.3,0-1.5,0-1.5-0.3c0-6.1,0-9.1,0-14.2c0-0.3,0.2-0.2,1.3-0.2c1.4,0,1.6-0.1,1.6,0.5
				c0,0.8,0,1,0.2,0.7c0.4-0.6,1.5-1.2,2.1-1.2c2,0,3.5,1.2,3.5,4.5c0,2.8,0,6.7,0,10C256.2,488.5,255.9,488.5,254.7,488.5z"/>
			<path class="st4" d="M264.4,468.9c0.4-0.7,1.5-2,3.5-2c2.5,0,4.2,1.9,4.2,4.2c0,0.5,0,1,0,1.5c0,0.2-0.4,0.2-1.4,0.2
				c-1.1,0-1.7,0-1.7-0.2c0-0.4,0-1.1,0-1.4c0-0.9-0.6-1.4-1.1-1.4c-0.5,0-1,0.5-1,1c-0.1,0.5-0.1,0.8-0.1,1.2
				c0,3.6,5.7,6.1,5.7,11.2c0,0.9-0.1,2.1-0.5,2.8c-1,1.9-1.7,2.6-3.9,2.6c-2.5,0-4.3-1.5-4.3-4.3c0-0.3,0-1.3,0-1.7
				c0-0.3,0.3-0.3,1.5-0.3c1.2,0,1.8,0,1.8,0.2c0,0.4,0,1,0,1.3c0,1.1,0.2,1.8,1.1,1.8c0.8,0,1-0.6,1.1-1.1c0-0.5,0.1-1,0.1-1.4
				c0-2.7-5.7-6.4-5.7-11C263.7,471,264,469.6,264.4,468.9z"/>
			<path class="st4" d="M276.4,486.4c-1-4.6-1.8-7.8-2.8-12.4c-0.1-0.3,0.7-0.3,1.6-0.3c0.8,0,1.5,0,1.6,0.4c0.5,3.1,0.8,5,1.3,7.9
				c0,0.1,0,0.3,0.2,0.3c0.2,0,0.2-0.2,0.2-0.3c0.5-3.1,0.9-4.8,1.3-7.9c0.1-0.3,0.7-0.4,1.6-0.4c0.7,0,1.5,0.1,1.4,0.4
				c-1.7,7.3-3.2,13.5-4.8,20.1c-0.1,0.4-0.7,0.4-1.4,0.4c-0.6,0-1.4,0-1.3-0.5c0.4-2.2,0.7-3.6,1.2-5.8c0.1-0.4,0.1-0.6,0.1-1
				C276.5,486.9,276.4,486.7,276.4,486.4z"/>
			<path class="st4" d="M291.2,488.5c-1.4,0-1.7,0-1.7-0.2c0-2.8,0-5.8,0-9.4c0-0.9-0.1-1.9-0.9-1.9c-1,0-1.4,0.8-1.4,1.9
				c0,3.4,0,6.7,0,9.4c0,0.3-0.1,0.3-1.7,0.3c-1.3,0-1.5,0-1.5-0.3c0-6.1,0-9.1,0-14.2c0-0.3,0.2-0.2,1.3-0.2c1.4,0,1.6-0.1,1.6,0.5
				c0,0.8,0,1,0.2,0.7c0.4-0.6,1.5-1.2,2.1-1.2c2,0,3.5,1.2,3.5,4.5c0,2.8,0,6.7,0,10C292.7,488.5,292.4,488.5,291.2,488.5z"/>
			<path class="st4" d="M301.6,466.9c1.1,0,1.5,0,1.5,0.2c0,7.8,0,14.9,0,21.1c0,0.3-0.4,0.2-1.4,0.2c-1.2,0-1.6,0.2-1.6-0.4
				c0-0.4,0-0.7-0.2-0.5c-0.2,0.2-1,0.9-1.8,0.9c-2.2,0-3.7-1.4-3.7-4.4c0-2.2,0-3.9,0-6c0-3,1.7-4.4,3.7-4.4c0.4,0,1.2,0.3,1.6,0.7
				c0.2,0.2,0.3,0.1,0.3-0.4c0-2.2,0-4.2,0-6.8C300,466.9,300.5,466.9,301.6,466.9z M299.9,478.9c0-1-0.2-2-1.2-2
				c-1,0-1.2,1.1-1.2,2c0,1.5,0,2.7,0,4.3c0,1.2,0.2,2.1,1.2,2.1c1,0,1.2-0.9,1.2-2.1C299.9,481.5,299.9,480.6,299.9,478.9z"/>
			<path class="st4" d="M308.3,469.5c0.1,1.1,0.2,1.9-1.7,2.1c-1.1,0.2-1.9-1.1-1.8-2.2c0.1-1,0.4-1.9,1.8-1.8
				C307.5,467.6,308.2,468.5,308.3,469.5z M306.5,488.5c-1.5,0-1.5,0-1.5-0.5c0-4.3,0-9.4,0-13.8c0-0.5,0.1-0.5,1.5-0.5
				c1.6,0,1.7,0,1.7,0.6c0,3.6,0,8.9,0,13.7C308.2,488.5,308.1,488.5,306.5,488.5z"/>
			<path class="st4" d="M314.3,488.5c-2.7,0-4.3-1.9-4.3-4.5c0-3.5,0-2.4,0-6c0-2.7,1.8-4.4,4.3-4.4c2.5,0,4.3,1.5,4.3,4.5
				c0,0.3-0.1,0.4-1.7,0.4c-1.3,0-1.4,0-1.4-0.3c0-1-0.4-1.5-1.2-1.5c-1,0-1.2,0.8-1.2,2c0,1.6,0,3.1,0,4.8c0,1,0.1,2.1,1.2,2.1
				c1,0,1.2-0.8,1.2-1.6c0-0.2,0-0.4,1.5-0.4c1.5,0,1.6,0.1,1.6,0.5C318.6,486.7,317.1,488.5,314.3,488.5z"/>
			<path class="st4" d="M327.2,488.5c-1.4,0-1.6,0-1.6-0.5c0-0.4,0.1-0.7-0.2-0.6c-0.2,0.3-0.7,1-1.7,1c-2.2,0-3.8-1.4-3.8-4.4
				c0-2.2,0-3.8,0-6c0-3.3,2-4.4,3.8-4.4c0.6,0,1.3,0.4,1.7,0.9c0.2,0.3,0.2,0.1,0.2-0.5c0-0.4,0.3-0.4,1.6-0.4c1.1,0,1.4,0,1.4,0.3
				c0,3.8,0,8.1,0,14.2C328.5,488.5,328.3,488.5,327.2,488.5z M324.2,476.9c-1,0-1.2,1.1-1.2,2c0,1.5,0,2.5,0,4.3
				c0,1.2,0.2,2.1,1.2,2.1c1,0,1.2-0.9,1.2-2.1c0-1.4,0-2.6,0-4.3C325.4,477.9,325.2,476.9,324.2,476.9z"/>
			<path class="st4" d="M332,488.5c-1.4,0-1.5,0-1.5-0.4c0-7.7,0-13.2,0-20.6c0-0.5,0.1-0.5,1.5-0.5c1.5,0,1.7,0,1.7,0.5
				c0,5,0,12.7,0,20.5C333.6,488.5,333.6,488.5,332,488.5z"/>
			<path class="st4" d="M338.6,483.9c0,0.9,0.4,1.3,1.2,1.3c0.9,0,1.2-0.6,1.2-1.4c0-0.2,0.3-0.2,1.5-0.2c1.3,0,1.6,0,1.6,0.4
				c0,3-1.8,4.4-4.3,4.4c-2.5,0-4.3-1.7-4.3-4.4c0-3.6,0-2.4,0-6c0-2.7,1.9-4.4,4.3-4.4c2.5,0,4.3,1.7,4.3,4.4c0,1.4,0,2.3,0,3.2
				c0,0.3,0,0.5-0.6,0.5c-1.6,0-3.2,0-4.5,0c-0.2,0-0.4,0.1-0.4,0.5C338.6,482.8,338.6,483.3,338.6,483.9z M338.6,478.2
				c0,0.3,0,0.5,0,0.8c0,0.2,0.2,0.5,1.1,0.5c1.1,0,1.2-0.2,1.2-0.4c0-0.3,0-0.4,0-0.8c0-0.7-0.3-1.4-1.2-1.4
				C338.9,476.9,338.6,477.6,338.6,478.2z"/>
			<path class="st4" d="M358.8,466.9c1.1,0,1.5,0,1.5,0.2c0,7.8,0,14.9,0,21.1c0,0.3-0.4,0.2-1.4,0.2c-1.2,0-1.6,0.2-1.6-0.4
				c0-0.4,0-0.7-0.2-0.5c-0.2,0.2-1,0.9-1.8,0.9c-2.2,0-3.7-1.4-3.7-4.4c0-2.2,0-3.9,0-6c0-3,1.7-4.4,3.7-4.4c0.4,0,1.2,0.3,1.6,0.7
				c0.2,0.2,0.3,0.1,0.3-0.4c0-2.2,0-4.2,0-6.8C357.3,466.9,357.8,466.9,358.8,466.9z M357.2,478.9c0-1-0.2-2-1.2-2
				c-1,0-1.2,1.1-1.2,2c0,1.5,0,2.7,0,4.3c0,1.2,0.2,2.1,1.2,2.1c1,0,1.2-0.9,1.2-2.1C357.2,481.5,357.2,480.6,357.2,478.9z"/>
			<path class="st4" d="M365.1,483.9c0,0.9,0.4,1.3,1.2,1.3c0.9,0,1.2-0.6,1.2-1.4c0-0.2,0.3-0.2,1.5-0.2c1.3,0,1.6,0,1.6,0.4
				c0,3-1.8,4.4-4.3,4.4c-2.5,0-4.3-1.7-4.3-4.4c0-3.6,0-2.4,0-6c0-2.7,1.9-4.4,4.3-4.4c2.5,0,4.3,1.7,4.3,4.4c0,1.4,0,2.3,0,3.2
				c0,0.3,0,0.5-0.6,0.5c-1.6,0-3.2,0-4.5,0c-0.2,0-0.4,0.1-0.4,0.5C365.1,482.8,365.1,483.3,365.1,483.9z M365.1,478.2
				c0,0.3,0,0.5,0,0.8c0,0.2,0.2,0.5,1.1,0.5c1.1,0,1.2-0.2,1.2-0.4c0-0.3,0-0.4,0-0.8c0-0.7-0.3-1.4-1.2-1.4
				C365.4,476.9,365.1,477.6,365.1,478.2z"/>
			<path class="st4" d="M376.1,473.7c2.4,0,4,2,4,4.4c0,0.2-0.4,0.2-1.4,0.2c-1.2,0-1.6-0.1-1.6-0.2c0-1-0.4-1.6-1-1.6
				c-0.7,0-1,0.5-1,1.3c0,2.1,5.3,1.8,5.3,6.8c0,2.1-1.9,3.9-4.2,3.9s-4.2-1.7-4.2-4.3c0-0.2,0.2-0.2,1.4-0.2c1.1,0,1.6,0,1.6,0.2
				c0,0.8,0.3,1.5,1.2,1.5c0.9,0,1.2-0.6,1.2-1.3c0-2.8-5.2-1.6-5.2-6.7C372.1,475.7,373.5,473.7,376.1,473.7z"/>
			<path class="st4" d="M388.1,488c0-7.4,0-12.7,0-20.1c0-0.4,0-0.5,0.2-0.7c0.2-0.2,0.3-0.2,0.6-0.2c1.6,0,4.6,0,6.3,0
				c0.4,0,0.4,0.2,0.4,1.5c0,1.4,0,1.6-0.5,1.6c-0.7,0-2.3,0-2.9,0c-0.2,0-0.5,0-0.7,0.1c-0.2,0.2-0.2,0.5-0.2,0.9
				c0,2.2,0,2.1,0,4.3c0,0.3,0,0.6,0.2,0.8c0.2,0.2,0.4,0.1,0.7,0.1c0.5,0,1.4,0,1.7,0c0.4,0,0.4,0.2,0.4,1.5c0,1.3,0,1.5-0.4,1.5
				c-0.2,0-1.1,0-1.6,0c-0.3,0-0.6,0-0.7,0.1c-0.3,0.2-0.2,0.6-0.2,1c0,2.7,0,4.6,0,7.8c0,0.5-0.2,0.5-1.8,0.5
				C388.2,488.5,388.1,488.5,388.1,488z"/>
			<path class="st4" d="M403.7,488.5c-1.4,0-1.6,0-1.6-0.5c0-0.4,0.1-0.7-0.2-0.6c-0.2,0.3-0.7,1-1.7,1c-2.2,0-3.8-1.4-3.8-4.4
				c0-2.2,0-3.8,0-6c0-3.3,2-4.4,3.8-4.4c0.6,0,1.3,0.4,1.7,0.9c0.2,0.3,0.2,0.1,0.2-0.5c0-0.4,0.3-0.4,1.6-0.4c1.1,0,1.4,0,1.4,0.3
				c0,3.8,0,8.1,0,14.2C405.1,488.5,404.8,488.5,403.7,488.5z M400.7,476.9c-1,0-1.2,1.1-1.2,2c0,1.5,0,2.5,0,4.3
				c0,1.2,0.2,2.1,1.2,2.1c1,0,1.2-0.9,1.2-2.1c0-1.4,0-2.6,0-4.3C401.9,477.9,401.7,476.9,400.7,476.9z"/>
			<path class="st4" d="M420.1,478.2c0,2.6,0,6.3,0,10c0,0.3-0.3,0.3-1.5,0.3c-1.5,0-1.7,0-1.7-0.3c0-3.3,0-5.9,0-9.4
				c0-1,0.1-1.9-1-1.9c-0.9,0-0.8,0.9-0.8,1.9c0,3.6,0,5.6,0,9.5c0,0.3-0.4,0.3-1.5,0.3c-1.3,0-1.7,0-1.7-0.3c0-3.4,0-5.9,0-9.5
				c0-0.9,0-1.8-0.9-1.8c-0.9,0-0.9,0.9-0.9,1.9c0,3.7,0,6,0,9.4c0,0.3-0.1,0.3-1.7,0.3c-1.4,0-1.5,0-1.5-0.3c0-6.1,0-9.1,0-14.2
				c0-0.3,0.2-0.2,1.3-0.2c1.4,0,1.6-0.1,1.6,0.5c0,0.4,0,0.8,0.2,0.6c0.2-0.5,1-1.1,1.8-1.1c1.9,0,2,1.3,2.2,1.3
				c0.3,0,0.4-1.3,2.5-1.3C418.7,473.7,420.1,475.1,420.1,478.2z"/>
			<path class="st4" d="M425.3,469.5c0.1,1.1,0.2,1.9-1.7,2.1c-1.1,0.2-1.9-1.1-1.8-2.2c0.1-1,0.4-1.9,1.8-1.8
				C424.6,467.6,425.3,468.5,425.3,469.5z M423.6,488.5c-1.5,0-1.5,0-1.5-0.5c0-4.3,0-9.4,0-13.8c0-0.5,0.1-0.5,1.5-0.5
				c1.6,0,1.7,0,1.7,0.6c0,3.6,0,8.9,0,13.7C425.3,488.5,425.2,488.5,423.6,488.5z"/>
			<path class="st4" d="M428.8,488.5c-1.4,0-1.5,0-1.5-0.4c0-7.7,0-13.2,0-20.6c0-0.5,0.2-0.5,1.5-0.5c1.5,0,1.7,0,1.7,0.5
				c0,5,0,12.7,0,20.5C430.5,488.5,430.5,488.5,428.8,488.5z"/>
			<path class="st4" d="M434.1,488.5c-1.4,0-1.5,0-1.5-0.4c0-7.7,0-13.2,0-20.6c0-0.5,0.2-0.5,1.5-0.5c1.5,0,1.7,0,1.7,0.5
				c0,5,0,12.7,0,20.5C435.8,488.5,435.8,488.5,434.1,488.5z"/>
			<path class="st4" d="M440.8,483.9c0,0.9,0.4,1.3,1.2,1.3c0.9,0,1.2-0.6,1.2-1.4c0-0.2,0.3-0.2,1.5-0.2c1.3,0,1.6,0,1.6,0.4
				c0,3-1.8,4.4-4.3,4.4c-2.5,0-4.3-1.7-4.3-4.4c0-3.6,0-2.4,0-6c0-2.7,1.9-4.4,4.3-4.4c2.5,0,4.3,1.7,4.3,4.4c0,1.4,0,2.3,0,3.2
				c0,0.3,0,0.5-0.6,0.5c-1.6,0-3.2,0-4.5,0c-0.2,0-0.4,0.1-0.4,0.5C440.8,482.8,440.8,483.3,440.8,483.9z M440.8,478.2
				c0,0.3,0,0.5,0,0.8c0,0.2,0.2,0.5,1.1,0.5c1.1,0,1.2-0.2,1.2-0.4c0-0.3,0-0.4,0-0.8c0-0.7-0.3-1.4-1.2-1.4
				C441.1,476.9,440.8,477.6,440.8,478.2z"/>
			<path class="st4" d="M451.8,473.7c2.4,0,4,2,4,4.4c0,0.2-0.4,0.2-1.4,0.2c-1.2,0-1.6-0.1-1.6-0.2c0-1-0.4-1.6-1-1.6
				c-0.7,0-1,0.5-1,1.3c0,2.1,5.3,1.8,5.3,6.8c0,2.1-1.9,3.9-4.2,3.9c-2.3,0-4.2-1.7-4.2-4.3c0-0.2,0.2-0.2,1.4-0.2
				c1.1,0,1.6,0,1.6,0.2c0,0.8,0.3,1.5,1.2,1.5c0.9,0,1.2-0.6,1.2-1.3c0-2.8-5.2-1.6-5.2-6.7C447.8,475.7,449.2,473.7,451.8,473.7z"
				/>
		</g>
	</g>
	<g>
		<path class="st4" d="M198,259.1l4.3,9.1c1.1,2.3,2.2,2.7,3.8,2c1.5-0.7,1.9-1.9,0.8-4.2l-4.3-9.1l2.7-1.3l4.3,9.1
			c1.8,3.7,0.2,6.2-2.5,7.6c-2.8,1.3-5.7,1-7.5-2.7l-4.3-9.1L198,259.1z"/>
		<path class="st4" d="M211.2,259.5c-0.3-0.7-0.5-1.3-0.8-1.7l2.5-1c0.2,0.5,0.5,1.1,0.7,1.6l0.1,0l0,0c0.1-0.8,0.5-2.3,2.3-3
			c2.5-1,4,0.5,4.8,2.7l2.7,6.9l-2.7,1.1l-2.5-6.4c-0.6-1.6-1.3-2.2-2.4-1.7c-1.4,0.6-1.5,1.9-0.9,3.3l2.4,6.2l-2.7,1.1L211.2,259.5
			z"/>
		<path class="st4" d="M234.2,261c-0.5,0.4-1.6,1.3-3.2,1.8c-3.7,1.2-6.1-0.9-7-3.9c-1-3.3,0-6.4,3-7.3c2.5-0.8,5,0,6.4,4.4l0.2,0.5
			l-6.6,2.1c0.6,1.9,1.7,2.8,3.8,2.1c1.7-0.5,2.3-1.3,2.8-1.8L234.2,261z M230.3,255.8c-0.6-1.9-1.6-2.7-2.8-2.3
			c-1.4,0.4-1.6,2.1-1.2,3.6L230.3,255.8z"/>
		<path class="st4" d="M242.1,249.9l-2,0.4l-0.4-2l2-0.4l-0.5-2.3c-0.3-1.6,0.2-3.3,2.8-3.8c0.8-0.2,1.5-0.2,2.1-0.2l0.3,2
			c-0.4,0-0.7,0-1.2,0.1c-0.8,0.2-1.2,0.8-1.1,1.7l0.4,1.9l2.1-0.4l0.4,2l-2.1,0.4l1.9,9.3l-2.8,0.6L242.1,249.9z"/>
		<path class="st4" d="M254,245.5c2.4-0.4,5.4,0.5,6.1,5.1c0.7,4.8-2,6.3-4.4,6.6c-2.4,0.4-5.4-0.3-6.1-5.1
			C248.9,247.5,251.5,245.9,254,245.5z M255.3,255.3c1.8-0.3,2-2.4,1.7-4.3c-0.3-1.9-1-3.9-2.8-3.6c-1.8,0.3-2,2.3-1.7,4.2
			C252.8,253.6,253.5,255.6,255.3,255.3z"/>
		<path class="st4" d="M262.5,246.6c-0.1-0.7-0.1-1.4-0.2-1.9l2.6-0.2c0.1,0.7,0.2,1.4,0.3,2.1l0,0c0.3-0.9,1.1-2.4,2.9-2.5
			c0.2,0,0.3,0,0.5,0l0.2,2.6c-0.3,0-0.5-0.1-0.8,0c-1.2,0.1-2.4,0.9-2.3,3l0.5,6.3l-2.9,0.2L262.5,246.6z"/>
		<path class="st4" d="M279.4,255c-0.7,0.3-1.7,0.5-2.8,0.6c-4,0.1-5.7-2.5-5.8-5.8c-0.1-3.3,1.6-6,5.7-6.1c0.9,0,2,0.2,2.5,0.4
			l-0.1,2.2c-0.5-0.2-1.3-0.5-2-0.5c-2.2,0.1-3.1,1.5-3,4c0.1,2.1,1.2,3.8,3.4,3.7c0.7,0,1.6-0.4,2-0.6L279.4,255z"/>
		<path class="st4" d="M290.1,255c-0.6,0.2-1.9,0.7-3.6,0.6c-3.9-0.1-5.4-2.9-5.3-6c0.1-3.4,2.1-6,5.2-5.9c2.6,0.1,4.7,1.6,4.6,6.3
			l0,0.5l-6.9-0.2c-0.1,2,0.7,3.2,2.9,3.3c1.8,0.1,2.6-0.4,3.2-0.8L290.1,255z M288.1,248.8c0.1-2-0.6-3.1-1.9-3.1
			c-1.5-0.1-2.2,1.5-2.3,3L288.1,248.8z"/>
		<path class="st4" d="M300.3,246.9c0.1-0.8,0.2-1.5,0.2-2l2.7,0.4c0,0.3-0.1,1-0.2,1.8l0.1,0c0.6-0.9,1.6-1.8,3.4-1.5
			c3,0.4,3.8,3.3,3.3,6.5c-0.5,3.7-2.4,5.7-5,5.3c-1.7-0.2-2.5-1.3-2.8-2.3l0,0l-0.9,6.4l-2.9-0.4L300.3,246.9z M304.3,255.2
			c1.6,0.2,2.4-1.2,2.7-3.5c0.4-2.6,0.1-4-1.5-4.3c-1.7-0.2-2.5,1.4-2.8,3.6C302.3,253.3,302.7,255,304.3,255.2z"/>
		<path class="st4" d="M318.7,247.9c2.4,0.5,4.9,2.3,3.9,6.9c-1,4.7-4,5.2-6.4,4.7c-2.4-0.5-4.9-2.2-3.9-6.9
			C313.2,247.9,316.3,247.4,318.7,247.9z M316.5,257.5c1.8,0.4,2.7-1.5,3.1-3.4c0.4-1.9,0.4-4-1.4-4.4c-1.8-0.4-2.7,1.5-3.1,3.4
			C314.7,255,314.7,257.1,316.5,257.5z"/>
		<path class="st4" d="M333.2,261.9c-0.2,0.7-0.4,1.3-0.5,1.8l-2.6-0.8c0.1-0.6,0.2-1.2,0.4-1.7l-0.1,0l0,0
			c-0.8,0.7-1.8,1.5-3.6,0.9c-2.6-0.8-2.8-2.9-2.2-5.1l2.1-7.1l2.8,0.8l-2,6.6c-0.5,1.7-0.2,2.5,0.9,2.9c1.5,0.4,2.3-0.7,2.7-2.1
			l1.9-6.3l2.8,0.8L333.2,261.9z"/>
		<path class="st4" d="M338.5,255.6c0.2-0.7,0.5-1.3,0.6-1.8l2.5,0.9c-0.2,0.7-0.4,1.4-0.6,2l0,0c0.6-0.7,2-1.7,3.7-1.1
			c0.2,0.1,0.3,0.2,0.4,0.2l-0.9,2.4c-0.2-0.2-0.4-0.3-0.7-0.4c-1.1-0.4-2.6-0.2-3.3,1.8l-2.2,5.9l-2.7-1L338.5,255.6z"/>
		<path class="st4" d="M400.7,292.7c0.6-0.6,1-1.1,1.3-1.4l2,2.1c-0.4,0.4-0.8,0.9-1.2,1.3l0,0c0.9-0.3,2.4-0.4,3.5,0.8
			c1.4,1.4,1,2.8,0.8,3.5c1-0.2,2.3-0.3,3.6,1c1.8,1.9,1.2,3.7-0.8,5.7l-5,5l-2-2.1l5.1-5.1c1-1,1.2-1.8,0.4-2.6
			c-0.9-0.9-2.2-0.6-3.1,0.3l-4.9,4.9l-2-2.1l5.1-5.1c1-1,1.2-1.8,0.4-2.6c-0.9-0.9-2.2-0.6-3.1,0.3l-4.9,4.9l-2-2.1L400.7,292.7z"
			/>
		<path class="st4" d="M415.3,305.4l1.9,2.2l-8.7,7.5l-1.9-2.2L415.3,305.4z M419,302.1l1.9,2.3l-2.1,1.8l-1.9-2.3L419,302.1z"/>
		<path class="st4" d="M416.3,323.9c-0.6-0.3-1.7-1-2.8-2.4c-2.4-3.1-1.3-6,1.1-7.9c2.7-2.1,6-2.2,7.8,0.2c1.6,2.1,1.8,4.7-1.9,7.6
			l-0.4,0.3l-4.3-5.5c-1.5,1.2-2,2.6-0.6,4.4c1.1,1.4,2,1.8,2.6,2L416.3,323.9z M419.8,318.4c1.6-1.2,2-2.4,1.2-3.5
			c-0.9-1.2-2.5-0.8-3.7,0.2L419.8,318.4z"/>
		<path class="st4" d="M424.4,333.4c-0.6,0.4-1.1,0.8-1.5,1.1l-1.5-2.3c0.5-0.3,0.9-0.7,1.4-1.1l0-0.1l0,0c-1,0-2.3,0-3.4-1.6
			c-1.5-2.3-0.4-4,1.5-5.3l6.1-4.2l1.6,2.4l-5.7,3.9c-1.5,1-1.8,1.8-1.1,2.8c0.9,1.3,2.2,0.9,3.4,0.1l5.4-3.7l1.6,2.4L424.4,333.4z"
			/>
		<path class="st4" d="M430.7,335.7l2.9-5.5l1.6,2.8l-2.2,3.5l4.2-0.1l1.5,2.6l-6.2-0.2l-3.5,6.3l-1.6-2.8l2.6-4.1l-4.8,0.2
			l-1.5-2.7L430.7,335.7z"/>
		<path class="st4" d="M442.2,345.9l1.2,2.7l-7,5.9l0,0l9.1-1.4l1.1,2.6l-11.9,1.4l-1.4-3.1L442.2,345.9z"/>
		<path class="st4" d="M447.5,358l1.1,2.7l-10.7,4.2l-1-2.7L447.5,358z M452,356.2l1.1,2.8l-2.5,1l-1.1-2.8L452,356.2z"/>
		<path class="st4" d="M449.4,363l0.9,2.8l-7.6,5.2l0,0l9.2-0.5l0.9,2.7l-12,0.1l-1.1-3.2L449.4,363z"/>
		<path class="st4" d="M451.6,375.9c0.7-0.2,1.3-0.4,1.8-0.6l0.7,2.5c-0.7,0.2-1.3,0.5-2,0.6l0,0c0.9,0.1,2.5,0.6,3,2.4
			c0,0.2,0,0.3,0.1,0.5l-2.5,0.7c0-0.3,0-0.5-0.1-0.8c-0.3-1.2-1.3-2.2-3.4-1.7l-6.1,1.7l-0.8-2.8L451.6,375.9z"/>
		<path class="st4" d="M446.8,394.9c-0.4-0.5-1.1-1.7-1.4-3.4c-0.8-3.8,1.5-6,4.5-6.6c3.3-0.7,6.3,0.6,6.9,3.6c0.5,2.5-0.4,5-5,6
			l-0.5,0.1l-1.4-6.8c-1.9,0.4-2.9,1.5-2.4,3.7c0.4,1.7,1,2.5,1.5,2.9L446.8,394.9z M452.3,391.5c2-0.4,2.8-1.3,2.6-2.6
			c-0.3-1.5-1.9-1.8-3.4-1.5L452.3,391.5z"/>
	</g>
</g>
<g>
	<path class="st4" d="M387.1,381.8l3.2-16.8h-1.6h-46.6l-18.6,86H342c0,0,7.4-34.1,7.8-36.1c1.9,0,27.7,0,27.7,0l3.6-16.8
		c0,0-24.9,0-27.7,0c0.5-2.5,3.1-14.6,3.5-16.3C358.9,381.8,387.1,381.8,387.1,381.8z"/>
	<path class="st4" d="M245.9,380.5c4.4,0,9.1,1.1,13.9,3.1l3.4,1.5l5.5-16.3l-3-1.2c-6.2-2.5-13.2-3.9-20-3.9
		c-37.1,0-50.6,29.4-50.6,49.1c0,24.8,15.1,39.6,40.4,39.6c5.4,0,10.7-0.8,15.5-2.3l2-0.7l2.6-18.6l-5.5,2.3
		c-3.8,1.6-8.4,2.5-12.8,2.5c-14.9,0-23.4-8.1-23.4-22.2C213.8,397,223.7,380.5,245.9,380.5z"/>
	<path class="st4" d="M304.5,380.5c4.7,0,8.8,1.1,12.5,3.4l3.7,2.3l5.4-17.2l-2.9-1.2c-6.4-2.7-13.2-4-20.2-4
		c-14.3,0-29.4,9.1-29.4,26c0,13.8,9.6,19.5,16.6,23.7c6.5,3.9,10.2,6.3,10.2,11.6c0,5.3-4.2,10.6-13.6,10.6
		c-4.7,0-10.5-1.7-14.7-4.5l-3.7-2.3l-6.1,17.6l3,1.2c7.2,2.9,14,4.8,23.2,4.8c21,0,30.6-14.9,30.6-28.8c0-13.4-9.6-19.4-17.2-24.2
		c-6.5-4.1-9.6-6.4-9.6-10C292.3,381.6,299.9,380.5,304.5,380.5z"/>
	<path class="st4" d="M185.6,448.9c-3.3,0.2-7.3,0.4-8.4-3.2c-0.4-1.3,0.7-4.1,1.5-6.1c0.9-2.2,1.2-3.2,0.8-3.7
		c-0.1-0.2-0.4-0.3-0.6-0.3c-1.6,0-3.3,2.3-5.3,5c-2,2.7-4.5,6-6,5.1c-0.3-0.2-0.5-0.5-0.5-1c-0.2-3.1,5.2-10.4,9.2-13.4
		c0.5-0.3,1.4,0.5,2.1,1.1c0.7,0.6,1.3,1.1,1.9,1c0.2,0,0.4-0.2,0.6-0.6c0.6-1.6,0.2-5.1-1-6.2c-0.5-0.5-1.1-0.6-1.7-0.3
		c-3.9,1.8-11.3,9.5-13.6,12.6c-0.6,0.8-4.2,4.5-5,5.1c0,0-1.2,1.1-1.2,1.1c-2,1.9-4.6,4.2-7,3c-0.8-0.4-1-1.9-1-3.6
		c0-1.4,0.2-2.9,0.5-3.9c0.2-0.2,1.8-1.6,1.8-1.6c3.3-2.7,9.4-7.8,16.1-19.7c1.1-1.9,3.6-7.9,3.6-11.3c0-0.8-0.1-1.4-0.4-1.8
		c-0.6-0.9-1.4-1.3-2.5-1.3c-4.5,0.1-11.3,9.3-15,14.8c-6.6,9.8-8.2,20.1-8.4,21.2c-0.4,0.3-2.9,2.3-6.6,4.5l-0.2,0.2v2.8l0.8-0.4
		c2-1.1,4-2.5,5.9-3.9c0.1,1.8,0.4,2.9,1,4.2c0.3,0.8,1.7,3.2,4.5,3.3c3.8,0.1,8.5-4.3,11.3-7.5c-0.2,0.9-0.3,1.7-0.3,2.6
		c0,1.3,0.3,2.6,0.8,3.4c0.6,0.8,1.4,1.1,2.3,1c3.7-0.5,5.7-2.4,7.4-4.2c0,0.1-0.1,0.2-0.1,0.3c0,0.7,0.2,1.4,0.6,2
		c0.8,1.1,2.2,1.8,4.3,1.8c0.6,0,5.2-0.3,11.3-0.7l1.1-0.1l-0.8-0.8C188.7,448.7,187.4,448.8,185.6,448.9z M151.4,437.1
		c0.4-1.3,1.3-3.9,3.8-8.8c4-7.9,10.8-17.1,14.3-19.4c0,0,0,0,0,0.1c0,1.6-1.2,6.3-7.5,15.9C157.3,432,153.2,435.7,151.4,437.1z"/>
</g>
</svg>
