<?xml version="1.0" encoding="utf-8"?>
<!-- Generator: Adobe Illustrator 26.2.0, SVG Export Plug-In . SVG Version: 6.00 Build 0)  -->
<svg version="1.1" id="Calque_1" xmlns="http://www.w3.org/2000/svg" xmlns:xlink="http://www.w3.org/1999/xlink" x="0px" y="0px"
	 viewBox="0 0 595.3 841.9" style="enable-background:new 0 0 595.3 841.9;" xml:space="preserve">
<style type="text/css">
	.st0{fill:#F0931E;}
	.st1{fill:#AA81AA;}
	.st2{fill:#9A6755;}
	.st3{fill:#76B82A;}
</style>
<g>
	<g>
		<path class="st0" d="M565,112.9c-22.6,149.7-100.5,221.5-100.5,221.5c-8-5.2-47.3-36.6-99.7-49.2C408.7,142.2,547.8,116,565,112.9
			z"/>
		<path class="st1" d="M22.4,327.5c20-16.5,124.9-83.4,313.2-35.3c-3.8,8.3-23.1,48.7-19,130.1C139.8,450.4,36.2,345.8,22.4,327.5z"
			/>
		<path class="st2" d="M337.7,432.2c0,0-7.5-77.1,19-130c21.8,6.1,64.9,22.5,99.7,49.2C420.4,400.8,337.7,432.2,337.7,432.2z"/>
	</g>
	<path class="st3" d="M462.6,376.3c-10.4,11.8-54.7,52.9-99,67.4c0,0.5,44.6,184.2,197.8,238.9C565.4,677,622.2,496.1,462.6,376.3z"
		/>
</g>
</svg>
